# xmcd CD database file
#
# Track frame offsets:
#	150
#	9485
#	30015
#	47195
#	85465
#	103790
#	116475
#	139075
#	157110
#	174530
#	191650
#	224485
#	239310
#
# Disc length: 3426 seconds
#
# Revision: 3
# Processed by: cddbd v1.5.1PL2 Copyright (c) Steve Scherf et al.
# Submitted via: CDex 1.40Beta9
#
DISCID=af0d600d
DTITLE=Nuno Mindelis - Texas Bound
DYEAR=1996
DGENRE=Blues
TTITLE0=Hugs
TTITLE1=Back To Memphis
TTITLE2=You Don't Have To Go
TTITLE3=Egyptian Priestess
TTITLE4=What Can I Do
TTITLE5=Castles Made Of Sand
TTITLE6=Hard To Bear
TTITLE7=Avenue G
TTITLE8=Monkey Joke
TTITLE9=You Got Me Running
TTITLE10=Blues For Antone's
TTITLE11=They Call Me The Beast
TTITLE12=Texas Bound
EXTD=YEAR: 1996 ID3G: 0
EXTT0=
EXTT1=
EXTT2=
EXTT3=
EXTT4=
EXTT5=
EXTT6=
EXTT7=
EXTT8=
EXTT9=
EXTT10=
EXTT11=
EXTT12=
PLAYORDER=
